Homoneta-Regular.ufo
<glyph name="equal" format="2">
	<advance width="586"/>
	<unicode hex="003D"/>
	<outline>
		<contour>
			<point x="100" y="307" type="line"/>
			<point x="486" y="307" type="line"/>
			<point x="486" y="342" type="line"/>
			<point x="100" y="342" type="line"/>
		</contour>
		<contour>
			<point x="100" y="137" type="line"/>
			<point x="486" y="137" type="line"/>
			<point x="486" y="172" type="line"/>
			<point x="100" y="172" type="line"/>
		</contour>
	</outline>
</glyph>
<glyph name="j" format="2">
	<advance width="212"/>
	<unicode hex="006A"/>
	<guideline x="190" y="-160" angle="0"/>
	<outline>
		<contour>
			<point x="154" y="-180" type="line"/>
			<point x="154" y="440" type="line"/>
			<point x="0" y="379" type="line"/>
			<point x="0" y="361" type="line"/>
			<point x="59" y="361" type="line"/>
			<point x="81" y="342" type="line"/>
			<point x="81" y="-82" type="line"/>
			<point x="59" y="-101" type="line"/>
			<point x="0" y="-101" type="line"/>
			<point x="0" y="-119" type="line"/>
		</contour>
		<component base="uni0307" xOffset="-11"/>
	</outline>
</glyph>
<glyph name="minus" format="2">
	<advance width="526"/>
	<unicode hex="2212"/>
	<outline>
		<contour>
			<point x="70" y="247" type="line"/>
			<point x="456" y="247" type="line"/>
			<point x="456" y="282" type="line"/>
			<point x="70" y="282" type="line"/>
		</contour>
	</outline>
</glyph>
<glyph name="notequal" format="2">
	<advance width="586"/>
	<unicode hex="2260"/>
	<outline>
		<contour>
			<point x="199" y="14" type="line"/>
			<point x="249" y="14" type="line"/>
			<point x="387" y="444" type="line"/>
			<point x="337" y="444" type="line"/>
		</contour>
		<component base="equal"/>
	</outline>
</glyph>
<glyph name="uF1130" format="2">
	<advance width="453"/>
	<unicode hex="F1130"/>
	<outline>
		<contour>
			<point x="231" y="-9" type="curve" smooth="yes"/>
			<point x="312" y="-9"/>
			<point x="386" y="63"/>
			<point x="397" y="144" type="curve"/>
			<point x="374" y="152" type="line"/>
			<point x="345" y="78"/>
			<point x="276" y="30"/>
			<point x="231" y="30" type="curve" smooth="yes"/>
			<point x="161" y="30"/>
			<point x="109" y="111"/>
			<point x="119" y="261" type="curve"/>
			<point x="443" y="261" type="line"/>
			<point x="443" y="291" type="line"/>
			<point x="409" y="291" type="line"/>
			<point x="394" y="382"/>
			<point x="352" y="600"/>
			<point x="195" y="600" type="curve" smooth="yes"/>
			<point x="118" y="600"/>
			<point x="58" y="576"/>
			<point x="41" y="536" type="curve" smooth="yes"/>
			<point x="27" y="503"/>
			<point x="39" y="469"/>
			<point x="65" y="458" type="curve" smooth="yes"/>
			<point x="86" y="449"/>
			<point x="109" y="460"/>
			<point x="120" y="480" type="curve" smooth="yes"/>
			<point x="125" y="489"/>
			<point x="128" y="501"/>
			<point x="122" y="520" type="curve"/>
			<point x="118" y="556"/>
			<point x="140" y="575"/>
			<point x="186" y="575" type="curve" smooth="yes"/>
			<point x="255" y="575"/>
			<point x="272" y="522"/>
			<point x="288" y="442" type="curve"/>
			<point x="271" y="448"/>
			<point x="252" y="451"/>
			<point x="231" y="451" type="curve" smooth="yes"/>
			<point x="115" y="451"/>
			<point x="30" y="358"/>
			<point x="30" y="225" type="curve" smooth="yes"/>
			<point x="30" y="93"/>
			<point x="107" y="-9"/>
		</contour>
		<contour>
			<point x="119" y="292" type="line"/>
			<point x="130" y="365"/>
			<point x="168" y="424"/>
			<point x="231" y="424" type="curve" smooth="yes"/>
			<point x="306" y="424"/>
			<point x="326" y="349"/>
			<point x="325" y="292" type="curve"/>
		</contour>
	</outline>
</glyph>
<glyph name="uF1520" format="2">
	<advance width="922"/>
	<unicode hex="F1520"/>
	<outline>
		<contour>
			<point x="231" y="-10" type="curve" smooth="yes"/>
			<point x="246" y="-10"/>
			<point x="260" y="-8"/>
			<point x="274" y="-3" type="curve" smooth="yes"/>
			<point x="337" y="16"/>
			<point x="388" y="77"/>
			<point x="397" y="143" type="curve"/>
			<point x="374" y="151" type="line"/>
			<point x="354" y="100"/>
			<point x="315" y="61"/>
			<point x="278" y="42" type="curve" smooth="yes"/>
			<point x="261" y="34"/>
			<point x="245" y="29"/>
			<point x="231" y="29" type="curve" smooth="yes"/>
			<point x="165" y="29"/>
			<point x="115" y="101"/>
			<point x="118" y="235" type="curve" smooth="yes"/>
			<point x="118" y="243"/>
			<point x="118" y="251"/>
			<point x="119" y="260" type="curve" smooth="yes"/>
			<point x="127" y="349"/>
			<point x="155" y="419"/>
			<point x="223" y="425" type="curve" smooth="yes"/>
			<point x="231" y="425" type="line" smooth="yes"/>
			<point x="259" y="425"/>
			<point x="278" y="415"/>
			<point x="285" y="395" type="curve"/>
			<point x="285" y="254" type="line"/>
			<point x="358" y="254" type="line"/>
			<point x="358" y="306" type="line"/>
			<point x="384" y="365"/>
			<point x="399" y="407"/>
			<point x="457" y="411" type="curve"/>
			<point x="549" y="411"/>
			<point x="547" y="329"/>
			<point x="547" y="224" type="curve" smooth="yes"/>
			<point x="547" y="92"/>
			<point x="622" y="-10"/>
			<point x="746" y="-10" type="curve" smooth="yes"/>
			<point x="827" y="-10"/>
			<point x="901" y="62"/>
			<point x="912" y="143" type="curve"/>
			<point x="889" y="151" type="line"/>
			<point x="860" y="77"/>
			<point x="791" y="29"/>
			<point x="746" y="29" type="curve" smooth="yes"/>
			<point x="676" y="29"/>
			<point x="624" y="110"/>
			<point x="634" y="260" type="curve"/>
			<point x="868" y="260" type="line"/>
			<point x="868" y="290" type="line"/>
			<point x="621" y="290" type="line"/>
			<point x="621" y="331" type="line" smooth="yes"/>
			<point x="621" y="404"/>
			<point x="563" y="450"/>
			<point x="483" y="450" type="curve" smooth="yes"/>
			<point x="421" y="450"/>
			<point x="384" y="416"/>
			<point x="358" y="356" type="curve"/>
			<point x="358" y="600" type="line"/>
			<point x="204" y="544" type="line"/>
			<point x="204" y="521" type="line"/>
			<point x="263" y="521" type="line"/>
			<point x="285" y="502" type="line"/>
			<point x="285" y="442" type="line"/>
			<point x="267" y="447"/>
			<point x="248" y="450"/>
			<point x="231" y="450" type="curve" smooth="yes"/>
			<point x="224" y="450" type="line" smooth="yes"/>
			<point x="112" y="446"/>
			<point x="35" y="355"/>
			<point x="30" y="235" type="curve" smooth="yes"/>
			<point x="30" y="224" type="line" smooth="yes"/>
			<point x="30" y="92"/>
			<point x="107" y="-10"/>
		</contour>
	</outline>
</glyph>
<glyph name="uF1530" format="2">
	<advance width="1296"/>
	<unicode hex="F1530"/>
	<outline>
		<contour>
			<point x="231" y="-10" type="curve" smooth="yes"/>
			<point x="246" y="-10"/>
			<point x="260" y="-8"/>
			<point x="274" y="-3" type="curve" smooth="yes"/>
			<point x="337" y="16"/>
			<point x="388" y="77"/>
			<point x="397" y="143" type="curve"/>
			<point x="374" y="151" type="line"/>
			<point x="354" y="100"/>
			<point x="315" y="61"/>
			<point x="278" y="42" type="curve" smooth="yes"/>
			<point x="261" y="34"/>
			<point x="245" y="29"/>
			<point x="231" y="29" type="curve" smooth="yes"/>
			<point x="165" y="29"/>
			<point x="115" y="101"/>
			<point x="118" y="235" type="curve" smooth="yes"/>
			<point x="118" y="243"/>
			<point x="118" y="251"/>
			<point x="119" y="260" type="curve" smooth="yes"/>
			<point x="127" y="349"/>
			<point x="155" y="419"/>
			<point x="223" y="425" type="curve" smooth="yes"/>
			<point x="231" y="425" type="line" smooth="yes"/>
			<point x="259" y="425"/>
			<point x="278" y="415"/>
			<point x="285" y="395" type="curve"/>
			<point x="285" y="254" type="line"/>
			<point x="358" y="254" type="line"/>
			<point x="358" y="306" type="line"/>
			<point x="384" y="365"/>
			<point x="399" y="407"/>
			<point x="457" y="411" type="curve"/>
			<point x="549" y="411"/>
			<point x="547" y="329"/>
			<point x="547" y="224" type="curve" smooth="yes"/>
			<point x="547" y="92"/>
			<point x="622" y="-10"/>
			<point x="746" y="-10" type="curve" smooth="yes"/>
			<point x="827" y="-10"/>
			<point x="901" y="62"/>
			<point x="912" y="143" type="curve"/>
			<point x="889" y="151" type="line"/>
			<point x="860" y="77"/>
			<point x="791" y="29"/>
			<point x="746" y="29" type="curve" smooth="yes"/>
			<point x="676" y="29"/>
			<point x="624" y="111"/>
			<point x="634" y="261" type="curve"/>
			<point x="985" y="261" type="line"/>
			<point x="1006" y="227"/>
			<point x="1044" y="205"/>
			<point x="1094" y="184" type="curve" smooth="yes"/>
			<point x="1152" y="160"/>
			<point x="1194" y="150"/>
			<point x="1201" y="110" type="curve" smooth="yes"/>
			<point x="1209" y="63"/>
			<point x="1162" y="22"/>
			<point x="1118" y="22" type="curve" smooth="yes"/>
			<point x="1065" y="22"/>
			<point x="1009" y="79"/>
			<point x="1001" y="169" type="curve"/>
			<point x="975" y="169" type="line"/>
			<point x="975" y="24" type="line"/>
			<point x="999" y="24" type="line"/>
			<point x="999" y="38" type="line"/>
			<point x="1016" y="38" type="line"/>
			<point x="1057" y="4"/>
			<point x="1071" y="-10"/>
			<point x="1123" y="-10" type="curve" smooth="yes"/>
			<point x="1191" y="-10"/>
			<point x="1266" y="25"/>
			<point x="1266" y="124" type="curve" smooth="yes"/>
			<point x="1266" y="196"/>
			<point x="1184" y="233"/>
			<point x="1101" y="263" type="curve" smooth="yes"/>
			<point x="1094" y="265"/>
			<point x="1088" y="268"/>
			<point x="1081" y="271" type="curve"/>
			<point x="1192" y="276"/>
			<point x="1258" y="303"/>
			<point x="1233" y="386" type="curve" smooth="yes"/>
			<point x="1219" y="432"/>
			<point x="1163" y="450"/>
			<point x="1104" y="450" type="curve" smooth="yes"/>
			<point x="1030" y="450"/>
			<point x="968" y="402"/>
			<point x="968" y="327" type="curve" smooth="yes"/>
			<point x="968" y="313"/>
			<point x="970" y="301"/>
			<point x="973" y="290" type="curve"/>
			<point x="621" y="290" type="line"/>
			<point x="621" y="331" type="line" smooth="yes"/>
			<point x="621" y="404"/>
			<point x="563" y="450"/>
			<point x="483" y="450" type="curve" smooth="yes"/>
			<point x="421" y="450"/>
			<point x="384" y="416"/>
			<point x="358" y="356" type="curve"/>
			<point x="358" y="600" type="line"/>
			<point x="204" y="544" type="line"/>
			<point x="204" y="521" type="line"/>
			<point x="263" y="521" type="line"/>
			<point x="285" y="502" type="line"/>
			<point x="285" y="442" type="line"/>
			<point x="267" y="447"/>
			<point x="248" y="450"/>
			<point x="231" y="450" type="curve" smooth="yes"/>
			<point x="224" y="450" type="line" smooth="yes"/>
			<point x="112" y="446"/>
			<point x="35" y="355"/>
			<point x="30" y="235" type="curve" smooth="yes"/>
			<point x="30" y="224" type="line" smooth="yes"/>
			<point x="30" y="92"/>
			<point x="107" y="-10"/>
		</contour>
		<contour>
			<point x="1026" y="335" type="curve" smooth="yes"/>
			<point x="1015" y="383"/>
			<point x="1059" y="426"/>
			<point x="1107" y="426" type="curve" smooth="yes"/>
			<point x="1147" y="424"/>
			<point x="1169" y="403"/>
			<point x="1172" y="370" type="curve" smooth="yes"/>
			<point x="1176" y="331"/>
			<point x="1157" y="298"/>
			<point x="1050" y="292" type="curve"/>
			<point x="1039" y="302"/>
			<point x="1030" y="316"/>
		</contour>
	</outline>
</glyph>
<glyph name="uF2520" format="2">
	<advance width="1090"/>
	<unicode hex="F2520"/>
	<outline>
		<contour>
			<point x="557" y="-10" type="curve" smooth="yes"/>
			<point x="667" y="-10"/>
			<point x="754" y="106"/>
			<point x="754" y="221" type="curve" smooth="yes"/>
			<point x="754" y="234"/>
			<point x="753" y="247"/>
			<point x="752" y="260" type="curve"/>
			<point x="1080" y="260" type="line"/>
			<point x="1080" y="290" type="line"/>
			<point x="1046" y="290" type="line"/>
			<point x="1033" y="370"/>
			<point x="973" y="450"/>
			<point x="868" y="450" type="curve" smooth="yes"/>
			<point x="802" y="450"/>
			<point x="745" y="421"/>
			<point x="709" y="371" type="curve"/>
			<point x="673" y="421"/>
			<point x="619" y="450"/>
			<point x="557" y="450" type="curve" smooth="yes"/>
			<point x="497" y="450"/>
			<point x="447" y="427"/>
			<point x="411" y="388" type="curve"/>
			<point x="389" y="427"/>
			<point x="343" y="450"/>
			<point x="287" y="450" type="curve" smooth="yes"/>
			<point x="229" y="450"/>
			<point x="190" y="420"/>
			<point x="162" y="356" type="curve"/>
			<point x="162" y="393" type="line"/>
			<point x="163" y="440" type="line"/>
			<point x="163" y="449" type="line"/>
			<point x="164" y="454"/>
			<point x="164" y="458"/>
			<point x="164" y="462" type="curve" smooth="yes"/>
			<point x="169" y="537"/>
			<point x="190" y="574"/>
			<point x="227" y="572" type="curve" smooth="yes"/>
			<point x="244" y="571"/>
			<point x="254" y="560"/>
			<point x="260" y="538" type="curve"/>
			<point x="260" y="517"/>
			<point x="267" y="507"/>
			<point x="275" y="500" type="curve" smooth="yes"/>
			<point x="292" y="485"/>
			<point x="317" y="482"/>
			<point x="335" y="498" type="curve" smooth="yes"/>
			<point x="356" y="516"/>
			<point x="355" y="553"/>
			<point x="331" y="579" type="curve" smooth="yes"/>
			<point x="310" y="602"/>
			<point x="276" y="606"/>
			<point x="227" y="603" type="curve" smooth="yes"/>
			<point x="173" y="600"/>
			<point x="127" y="556"/>
			<point x="104" y="487" type="curve" smooth="yes"/>
			<point x="103" y="485"/>
			<point x="103" y="482"/>
			<point x="102" y="480" type="curve" smooth="yes"/>
			<point x="98" y="467"/>
			<point x="95" y="454"/>
			<point x="93" y="440" type="curve"/>
			<point x="27" y="440" type="line"/>
			<point x="27" y="407" type="line"/>
			<point x="72" y="407" type="line"/>
			<point x="89" y="393" type="line"/>
			<point x="89" y="50" type="line"/>
			<point x="70" y="28" type="line"/>
			<point x="20" y="28" type="line"/>
			<point x="20" y="0" type="line"/>
			<point x="229" y="0" type="line"/>
			<point x="229" y="28" type="line"/>
			<point x="181" y="28" type="line"/>
			<point x="162" y="50" type="line"/>
			<point x="162" y="306" type="line"/>
			<point x="189" y="380"/>
			<point x="216" y="408"/>
			<point x="261" y="411" type="curve" smooth="yes"/>
			<point x="316" y="411"/>
			<point x="352" y="377"/>
			<point x="352" y="281" type="curve" smooth="yes"/>
			<point x="352" y="214" type="line" smooth="yes"/>
			<point x="356" y="101"/>
			<point x="440" y="-10"/>
		</contour>
		<contour>
			<point x="437" y="221" type="curve" smooth="yes"/>
			<point x="437" y="357"/>
			<point x="476" y="425"/>
			<point x="557" y="425" type="curve" smooth="yes"/>
			<point x="630" y="425"/>
			<point x="670" y="357"/>
			<point x="670" y="221" type="curve" smooth="yes"/>
			<point x="670" y="106"/>
			<point x="627" y="14"/>
			<point x="557" y="15" type="curve" smooth="yes"/>
			<point x="485" y="16"/>
			<point x="437" y="106"/>
		</contour>
		<contour>
			<point x="756" y="291" type="line"/>
			<point x="767" y="364"/>
			<point x="805" y="423"/>
			<point x="868" y="423" type="curve" smooth="yes"/>
			<point x="943" y="423"/>
			<point x="963" y="348"/>
			<point x="962" y="291" type="curve"/>
		</contour>
	</outline>
</glyph>
<glyph name="uF2620" format="2">
	<advance width="623"/>
	<unicode hex="F2620"/>
	<outline>
		<contour>
			<point x="40" y="0" type="line"/>
			<point x="461" y="0" type="line"/>
			<point x="461" y="105" type="line"/>
			<point x="433" y="105" type="line"/>
			<point x="433" y="57" type="line"/>
			<point x="411" y="38" type="line"/>
			<point x="211" y="38" type="line"/>
			<point x="192" y="60" type="line"/>
			<point x="192" y="289" type="line"/>
			<point x="211" y="311" type="line"/>
			<point x="360" y="311" type="line"/>
			<point x="382" y="292" type="line"/>
			<point x="382" y="262" type="line"/>
			<point x="410" y="262" type="line"/>
			<point x="410" y="394" type="line"/>
			<point x="382" y="394" type="line"/>
			<point x="382" y="366" type="line"/>
			<point x="360" y="347" type="line"/>
			<point x="211" y="347" type="line"/>
			<point x="192" y="369" type="line"/>
			<point x="192" y="540" type="line"/>
			<point x="211" y="562" type="line"/>
			<point x="359" y="562" type="line"/>
			<point x="381" y="543" type="line"/>
			<point x="381" y="497" type="line"/>
			<point x="409" y="497" type="line"/>
			<point x="409" y="600" type="line"/>
			<point x="109" y="599" type="line"/>
			<point x="109" y="50" type="line"/>
			<point x="90" y="28" type="line"/>
			<point x="40" y="28" type="line"/>
		</contour>
		<contour>
			<point x="42" y="-180" type="line"/>
			<point x="623" y="-180" type="line"/>
			<point x="623" y="-75" type="line"/>
			<point x="595" y="-75" type="line"/>
			<point x="595" y="-123" type="line"/>
			<point x="573" y="-142" type="line"/>
			<point x="213" y="-142" type="line"/>
			<point x="194" y="-120" type="line"/>
			<point x="194" y="420" type="line"/>
			<point x="111" y="420" type="line"/>
			<point x="111" y="-130" type="line"/>
			<point x="92" y="-152" type="line"/>
			<point x="42" y="-152" type="line"/>
		</contour>
		<component base="uni0307" xOffset="32" yOffset="130"/>
	</outline>
</glyph>
<glyph name="uF3310" format="2">
	<advance width="427"/>
	<unicode hex="F3310"/>
	<outline>
		<contour>
			<point x="132" y="203" type="line"/>
			<point x="132" y="600" type="line"/>
			<point x="-31" y="544" type="line"/>
			<point x="-31" y="521" type="line"/>
			<point x="28" y="521" type="line"/>
			<point x="50" y="502" type="line"/>
			<point x="50" y="223" type="line"/>
		</contour>
		<component base="inclusive_e" xOffset="20"/>
	</outline>
</glyph>
<glyph name="uF3360" format="2">
	<advance width="1137"/>
	<unicode hex="F3360"/>
	<outline>
		<contour>
			<point x="921" y="-9" type="curve" smooth="yes"/>
			<point x="936" y="-9"/>
			<point x="951" y="-7"/>
			<point x="965" y="-3" type="curve" smooth="yes"/>
			<point x="1001" y="7"/>
			<point x="1033" y="34"/>
			<point x="1054" y="82" type="curve"/>
			<point x="1076" y="82" type="line"/>
			<point x="1076" y="0" type="line"/>
			<point x="1127" y="0" type="line"/>
			<point x="1127" y="440" type="line"/>
			<point x="973" y="379" type="line"/>
			<point x="973" y="361" type="line"/>
			<point x="1032" y="361" type="line"/>
			<point x="1054" y="342" type="line"/>
			<point x="1054" y="132" type="line"/>
			<point x="1030" y="69"/>
			<point x="998" y="38"/>
			<point x="965" y="32" type="curve" smooth="yes"/>
			<point x="959" y="31"/>
			<point x="953" y="30"/>
			<point x="947" y="30" type="curve" smooth="yes"/>
			<point x="892" y="30"/>
			<point x="857" y="65"/>
			<point x="856" y="158" type="curve" smooth="yes"/>
			<point x="855" y="272" type="line" smooth="yes"/>
			<point x="850" y="386"/>
			<point x="784" y="450"/>
			<point x="679" y="450" type="curve" smooth="yes"/>
			<point x="582" y="450"/>
			<point x="506" y="388"/>
			<point x="485" y="288" type="curve"/>
			<point x="392" y="288" type="line"/>
			<point x="373" y="310" type="line"/>
			<point x="373" y="600" type="line"/>
			<point x="220" y="544" type="line"/>
			<point x="220" y="521" type="line"/>
			<point x="279" y="521" type="line"/>
			<point x="301" y="502" type="line"/>
			<point x="301" y="310" type="line"/>
			<point x="282" y="288" type="line"/>
			<point x="242" y="288" type="line"/>
			<point x="242" y="260" type="line"/>
			<point x="783" y="260" type="line"/>
			<point x="783" y="107" type="line" smooth="yes"/>
			<point x="783" y="38"/>
			<point x="841" y="-9"/>
		</contour>
		<contour>
			<point x="567" y="291" type="line"/>
			<point x="578" y="364"/>
			<point x="616" y="423"/>
			<point x="679" y="423" type="curve" smooth="yes"/>
			<point x="754" y="423"/>
			<point x="774" y="348"/>
			<point x="773" y="291" type="curve"/>
		</contour>
		<component base="uni0307" xOffset="954"/>
		<component base="l"/>
	</outline>
</glyph>
<glyph name="uF4540" format="2">
	<advance width="877"/>
	<unicode hex="F4540"/>
	<outline>
		<contour>
			<point x="590" y="261" type="line"/>
			<point x="668" y="261" type="line"/>
			<point x="668" y="349" type="line"/>
			<point x="701" y="349" type="line"/>
			<point x="712" y="373"/>
			<point x="721" y="416"/>
			<point x="745" y="416" type="curve" smooth="yes"/>
			<point x="770" y="416"/>
			<point x="783" y="385"/>
			<point x="815" y="385" type="curve" smooth="yes"/>
			<point x="838" y="385"/>
			<point x="857" y="404"/>
			<point x="857" y="427" type="curve" smooth="yes"/>
			<point x="857" y="455"/>
			<point x="831" y="480"/>
			<point x="796" y="480" type="curve" smooth="yes"/>
			<point x="747" y="480"/>
			<point x="711" y="440"/>
			<point x="686" y="390" type="curve"/>
			<point x="632" y="390" type="line"/>
			<point x="632" y="480" type="line"/>
			<point x="590" y="480" type="line"/>
		</contour>
		<component base="e"/>
		<component base="inclusive_e" xOffset="401"/>
		<component base="gravecomb" xOffset="333"/>
	</outline>
</glyph>
<glyph name="uF4B10" format="2">
	<advance width="1269"/>
	<unicode hex="F4B10"/>
	<outline>
		<contour>
			<point x="219" y="-9" type="curve" smooth="yes"/>
			<point x="234" y="-9"/>
			<point x="249" y="-7"/>
			<point x="263" y="-3" type="curve" smooth="yes"/>
			<point x="299" y="8"/>
			<point x="331" y="34"/>
			<point x="352" y="82" type="curve"/>
			<point x="374" y="82" type="line"/>
			<point x="374" y="0" type="line"/>
			<point x="425" y="0" type="line"/>
			<point x="425" y="309" type="line"/>
			<point x="478" y="309" type="line"/>
			<point x="489" y="333"/>
			<point x="498" y="376"/>
			<point x="522" y="376" type="curve" smooth="yes"/>
			<point x="547" y="376"/>
			<point x="560" y="345"/>
			<point x="592" y="345" type="curve" smooth="yes"/>
			<point x="615" y="345"/>
			<point x="634" y="364"/>
			<point x="634" y="387" type="curve" smooth="yes"/>
			<point x="634" y="415"/>
			<point x="608" y="440"/>
			<point x="573" y="440" type="curve" smooth="yes"/>
			<point x="524" y="440"/>
			<point x="488" y="400"/>
			<point x="463" y="350" type="curve"/>
			<point x="403" y="350" type="line"/>
			<point x="403" y="440" type="line"/>
			<point x="352" y="440" type="line"/>
			<point x="352" y="132" type="line"/>
			<point x="328" y="69"/>
			<point x="296" y="39"/>
			<point x="263" y="32" type="curve" smooth="yes"/>
			<point x="257" y="31"/>
			<point x="251" y="30"/>
			<point x="245" y="30" type="curve" smooth="yes"/>
			<point x="190" y="30"/>
			<point x="154" y="65"/>
			<point x="154" y="158" type="curve" smooth="yes"/>
			<point x="154" y="440" type="line"/>
			<point x="0" y="379" type="line"/>
			<point x="0" y="361" type="line"/>
			<point x="59" y="361" type="line"/>
			<point x="81" y="342" type="line"/>
			<point x="81" y="107" type="line" smooth="yes"/>
			<point x="81" y="38"/>
			<point x="139" y="-9"/>
		</contour>
		<contour>
			<point x="556" y="55" type="line" smooth="yes"/>
			<point x="556" y="-77"/>
			<point x="633" y="-179"/>
			<point x="757" y="-179" type="curve" smooth="yes"/>
			<point x="772" y="-179"/>
			<point x="786" y="-177"/>
			<point x="800" y="-172" type="curve" smooth="yes"/>
			<point x="852" y="-156"/>
			<point x="896" y="-112"/>
			<point x="915" y="-60" type="curve"/>
			<point x="946" y="-132"/>
			<point x="1009" y="-179"/>
			<point x="1093" y="-179" type="curve" smooth="yes"/>
			<point x="1174" y="-179"/>
			<point x="1248" y="-107"/>
			<point x="1259" y="-26" type="curve"/>
			<point x="1236" y="-18" type="line"/>
			<point x="1207" y="-92"/>
			<point x="1138" y="-140"/>
			<point x="1093" y="-140" type="curve" smooth="yes"/>
			<point x="1010" y="-140"/>
			<point x="969" y="-41"/>
			<point x="984" y="41" type="curve"/>
			<point x="1148" y="41" type="line"/>
			<point x="1148" y="71" type="line"/>
			<point x="903" y="71" type="line"/>
			<point x="895" y="38"/>
			<point x="894" y="4"/>
			<point x="896" y="-26" type="curve"/>
			<point x="876" y="-73"/>
			<point x="839" y="-109"/>
			<point x="804" y="-127" type="curve" smooth="yes"/>
			<point x="787" y="-135"/>
			<point x="771" y="-140"/>
			<point x="757" y="-140" type="curve" smooth="yes"/>
			<point x="691" y="-140"/>
			<point x="641" y="-68"/>
			<point x="644" y="66" type="curve" smooth="yes"/>
			<point x="644" y="74"/>
			<point x="644" y="82"/>
			<point x="645" y="91" type="curve" smooth="yes"/>
			<point x="653" y="180"/>
			<point x="681" y="256"/>
			<point x="749" y="256" type="curve" smooth="yes"/>
			<point x="757" y="256" type="line" smooth="yes"/>
			<point x="795" y="256"/>
			<point x="817" y="237"/>
			<point x="813" y="201" type="curve"/>
			<point x="807" y="182"/>
			<point x="810" y="170"/>
			<point x="815" y="161" type="curve" smooth="yes"/>
			<point x="826" y="141"/>
			<point x="849" y="130"/>
			<point x="870" y="139" type="curve" smooth="yes"/>
			<point x="896" y="150"/>
			<point x="908" y="184"/>
			<point x="894" y="217" type="curve" smooth="yes"/>
			<point x="877" y="257"/>
			<point x="807" y="281"/>
			<point x="757" y="281" type="curve" smooth="yes"/>
			<point x="750" y="281" type="line" smooth="yes"/>
			<point x="638" y="281"/>
			<point x="556" y="186"/>
			<point x="556" y="66" type="curve" smooth="yes"/>
		</contour>
		<component base="uni0307" xOffset="521"/>
	</outline>
</glyph>
<glyph name="E_D.liga" format="2">
	<advance width="574"/>
	<outline>
		<contour>
			<point x="92" y="243" type="line"/>
			<point x="175" y="243" type="line"/>
			<point x="175" y="289" type="line"/>
			<point x="194" y="311" type="line"/>
			<point x="313" y="311" type="line"/>
			<point x="335" y="292" type="line"/>
			<point x="335" y="262" type="line"/>
			<point x="363" y="262" type="line"/>
			<point x="363" y="394" type="line"/>
			<point x="335" y="394" type="line"/>
			<point x="335" y="366" type="line"/>
			<point x="313" y="347" type="line"/>
			<point x="194" y="347" type="line"/>
			<point x="175" y="369" type="line"/>
			<point x="175" y="412" type="line"/>
			<point x="92" y="412" type="line"/>
		</contour>
		<component base="D"/>
	</outline>
</glyph>
<glyph name="Eacute_E.liga" format="2">
	<advance width="670"/>
	<outline>
		<contour>
			<point x="20" y="0" type="line"/>
			<point x="640" y="0" type="line"/>
			<point x="640" y="105" type="line"/>
			<point x="612" y="105" type="line"/>
			<point x="612" y="57" type="line"/>
			<point x="590" y="38" type="line"/>
			<point x="390" y="38" type="line"/>
			<point x="372" y="59" type="line"/>
			<point x="372" y="290" type="line"/>
			<point x="390" y="311" type="line"/>
			<point x="539" y="311" type="line"/>
			<point x="561" y="292" type="line"/>
			<point x="561" y="262" type="line"/>
			<point x="589" y="262" type="line"/>
			<point x="589" y="394" type="line"/>
			<point x="561" y="394" type="line"/>
			<point x="561" y="366" type="line"/>
			<point x="539" y="347" type="line"/>
			<point x="390" y="347" type="line"/>
			<point x="372" y="368" type="line"/>
			<point x="372" y="541" type="line"/>
			<point x="390" y="562" type="line"/>
			<point x="538" y="562" type="line"/>
			<point x="560" y="543" type="line"/>
			<point x="560" y="497" type="line"/>
			<point x="588" y="497" type="line"/>
			<point x="588" y="600" type="line"/>
			<point x="72" y="600" type="line"/>
			<point x="72" y="497" type="line"/>
			<point x="100" y="497" type="line"/>
			<point x="100" y="543" type="line"/>
			<point x="122" y="562" type="line"/>
			<point x="270" y="562" type="line"/>
			<point x="288" y="541" type="line"/>
			<point x="288" y="368" type="line"/>
			<point x="270" y="347" type="line"/>
			<point x="121" y="347" type="line"/>
			<point x="99" y="366" type="line"/>
			<point x="99" y="394" type="line"/>
			<point x="71" y="394" type="line"/>
			<point x="71" y="262" type="line"/>
			<point x="99" y="262" type="line"/>
			<point x="99" y="292" type="line"/>
			<point x="121" y="311" type="line"/>
			<point x="270" y="311" type="line"/>
			<point x="288" y="290" type="line"/>
			<point x="288" y="59" type="line"/>
			<point x="270" y="38" type="line"/>
			<point x="70" y="38" type="line"/>
			<point x="48" y="57" type="line"/>
			<point x="48" y="105" type="line"/>
			<point x="20" y="105" type="line"/>
		</contour>
		<contour>
			<point x="248" y="684" type="line"/>
			<point x="323" y="668"/>
			<point x="374" y="691"/>
			<point x="399" y="734" type="curve" smooth="yes"/>
			<point x="422" y="773"/>
			<point x="411" y="814"/>
			<point x="383" y="829" type="curve" smooth="yes"/>
			<point x="360" y="841"/>
			<point x="334" y="835"/>
			<point x="323" y="815" type="curve" smooth="yes"/>
			<point x="311" y="793"/>
			<point x="317" y="775"/>
			<point x="336" y="762" type="curve" smooth="yes"/>
			<point x="339" y="760"/>
			<point x="344" y="759"/>
			<point x="348" y="759" type="curve" smooth="yes"/>
			<point x="365" y="759"/>
			<point x="375" y="762"/>
			<point x="368" y="740" type="curve" smooth="yes"/>
			<point x="356" y="703"/>
			<point x="305" y="689"/>
			<point x="255" y="698" type="curve"/>
		</contour>
	</outline>
</glyph>
<glyph name="Egrave_E.liga" format="2">
	<advance width="670"/>
	<outline>
		<contour>
			<point x="20" y="0" type="line"/>
			<point x="640" y="0" type="line"/>
			<point x="640" y="105" type="line"/>
			<point x="612" y="105" type="line"/>
			<point x="612" y="57" type="line"/>
			<point x="590" y="38" type="line"/>
			<point x="390" y="38" type="line"/>
			<point x="372" y="59" type="line"/>
			<point x="372" y="290" type="line"/>
			<point x="390" y="311" type="line"/>
			<point x="539" y="311" type="line"/>
			<point x="561" y="292" type="line"/>
			<point x="561" y="262" type="line"/>
			<point x="589" y="262" type="line"/>
			<point x="589" y="394" type="line"/>
			<point x="561" y="394" type="line"/>
			<point x="561" y="366" type="line"/>
			<point x="539" y="347" type="line"/>
			<point x="390" y="347" type="line"/>
			<point x="372" y="368" type="line"/>
			<point x="372" y="541" type="line"/>
			<point x="390" y="562" type="line"/>
			<point x="538" y="562" type="line"/>
			<point x="560" y="543" type="line"/>
			<point x="560" y="497" type="line"/>
			<point x="588" y="497" type="line"/>
			<point x="588" y="600" type="line"/>
			<point x="72" y="600" type="line"/>
			<point x="72" y="497" type="line"/>
			<point x="100" y="497" type="line"/>
			<point x="100" y="543" type="line"/>
			<point x="122" y="562" type="line"/>
			<point x="270" y="562" type="line"/>
			<point x="288" y="541" type="line"/>
			<point x="288" y="368" type="line"/>
			<point x="270" y="347" type="line"/>
			<point x="121" y="347" type="line"/>
			<point x="99" y="366" type="line"/>
			<point x="99" y="394" type="line"/>
			<point x="71" y="394" type="line"/>
			<point x="71" y="262" type="line"/>
			<point x="99" y="262" type="line"/>
			<point x="99" y="292" type="line"/>
			<point x="121" y="311" type="line"/>
			<point x="270" y="311" type="line"/>
			<point x="288" y="290" type="line"/>
			<point x="288" y="59" type="line"/>
			<point x="270" y="38" type="line"/>
			<point x="70" y="38" type="line"/>
			<point x="48" y="57" type="line"/>
			<point x="48" y="105" type="line"/>
			<point x="20" y="105" type="line"/>
		</contour>
		<contour>
			<point x="261" y="734" type="curve" smooth="yes"/>
			<point x="286" y="691"/>
			<point x="337" y="668"/>
			<point x="412" y="684" type="curve"/>
			<point x="405" y="698" type="line"/>
			<point x="355" y="689"/>
			<point x="304" y="703"/>
			<point x="292" y="740" type="curve" smooth="yes"/>
			<point x="285" y="762"/>
			<point x="295" y="759"/>
			<point x="312" y="759" type="curve" smooth="yes"/>
			<point x="316" y="759"/>
			<point x="321" y="760"/>
			<point x="324" y="762" type="curve" smooth="yes"/>
			<point x="343" y="775"/>
			<point x="349" y="793"/>
			<point x="337" y="815" type="curve" smooth="yes"/>
			<point x="326" y="835"/>
			<point x="300" y="841"/>
			<point x="277" y="829" type="curve" smooth="yes"/>
			<point x="249" y="814"/>
			<point x="238" y="773"/>
		</contour>
	</outline>
</glyph>
<glyph name="H_N.liga" format="2">
	<advance width="961"/>
	<outline>
		<contour>
			<point x="20" y="0" type="line"/>
			<point x="238" y="0" type="line"/>
			<point x="238" y="28" type="line"/>
			<point x="190" y="28" type="line"/>
			<point x="171" y="50" type="line"/>
			<point x="171" y="275" type="line"/>
			<point x="190" y="297" type="line"/>
			<point x="422" y="297" type="line"/>
			<point x="441" y="275" type="line"/>
			<point x="441" y="238" type="line"/>
			<point x="474" y="238" type="line"/>
			<point x="475" y="358" type="line"/>
			<point x="441" y="358" type="line"/>
			<point x="441" y="353" type="line"/>
			<point x="422" y="331" type="line"/>
			<point x="190" y="331" type="line"/>
			<point x="171" y="353" type="line"/>
			<point x="171" y="550" type="line"/>
			<point x="190" y="572" type="line"/>
			<point x="238" y="572" type="line"/>
			<point x="238" y="600" type="line"/>
			<point x="20" y="600" type="line"/>
			<point x="20" y="572" type="line"/>
			<point x="70" y="572" type="line"/>
			<point x="89" y="550" type="line"/>
			<point x="89" y="50" type="line"/>
			<point x="70" y="28" type="line"/>
			<point x="20" y="28" type="line"/>
		</contour>
		<component base="N" xOffset="352"/>
	</outline>
</glyph>
<glyph name="N_N.liga" format="2">
	<advance width="992"/>
	<outline>
		<contour>
			<point x="20" y="0" type="line"/>
			<point x="208" y="0" type="line"/>
			<point x="208" y="28" type="line"/>
			<point x="160" y="28" type="line"/>
			<point x="141" y="50" type="line"/>
			<point x="141" y="72" type="line"/>
			<point x="137" y="434" type="line"/>
			<point x="408" y="0" type="line"/>
			<point x="521" y="0" type="line"/>
			<point x="521" y="123" type="line"/>
			<point x="523" y="123" type="line"/>
			<point x="522" y="276" type="line"/>
			<point x="522" y="431" type="line"/>
			<point x="791" y="0" type="line"/>
			<point x="904" y="0" type="line"/>
			<point x="905" y="528" type="line"/>
			<point x="905" y="550" type="line"/>
			<point x="924" y="572" type="line"/>
			<point x="972" y="572" type="line"/>
			<point x="972" y="600" type="line"/>
			<point x="784" y="600" type="line"/>
			<point x="784" y="572" type="line"/>
			<point x="834" y="572" type="line"/>
			<point x="853" y="550" type="line"/>
			<point x="853" y="70" type="line"/>
			<point x="522" y="581" type="line"/>
			<point x="522" y="600" type="line"/>
			<point x="401" y="600" type="line"/>
			<point x="401" y="572" type="line"/>
			<point x="451" y="572" type="line"/>
			<point x="470" y="550" type="line"/>
			<point x="470" y="70" type="line"/>
			<point x="127" y="600" type="line"/>
			<point x="89" y="600" type="line"/>
			<point x="89" y="50" type="line"/>
			<point x="70" y="28" type="line"/>
			<point x="20" y="28" type="line"/>
		</contour>
	</outline>
</glyph>
<glyph name="T_E.liga" format="2">
	<advance width="648"/>
	<outline>
		<contour>
			<point x="302" y="0" type="line"/>
			<point x="618" y="0" type="line"/>
			<point x="618" y="105" type="line"/>
			<point x="590" y="105" type="line"/>
			<point x="590" y="57" type="line"/>
			<point x="568" y="38" type="line"/>
			<point x="368" y="38" type="line"/>
			<point x="349" y="60" type="line"/>
			<point x="349" y="289" type="line"/>
			<point x="368" y="311" type="line"/>
			<point x="517" y="311" type="line"/>
			<point x="539" y="292" type="line"/>
			<point x="539" y="262" type="line"/>
			<point x="567" y="262" type="line"/>
			<point x="567" y="394" type="line"/>
			<point x="539" y="394" type="line"/>
			<point x="539" y="366" type="line"/>
			<point x="517" y="347" type="line"/>
			<point x="368" y="347" type="line"/>
			<point x="349" y="369" type="line"/>
			<point x="349" y="509" type="line"/>
			<point x="298" y="509" type="line"/>
		</contour>
		<component base="T"/>
	</outline>
</glyph>
<glyph name="ecircumflex_t_e" format="2">
	<advance width="1079"/>
	<outline>
		<contour>
			<point x="231" y="-10" type="curve" smooth="yes"/>
			<point x="312" y="-10"/>
			<point x="386" y="62"/>
			<point x="397" y="143" type="curve"/>
			<point x="374" y="151" type="line"/>
			<point x="345" y="77"/>
			<point x="276" y="29"/>
			<point x="231" y="29" type="curve" smooth="yes"/>
			<point x="161" y="29"/>
			<point x="109" y="110"/>
			<point x="119" y="260" type="curve"/>
			<point x="543" y="260" type="line"/>
			<point x="543" y="290" type="line"/>
			<point x="409" y="290" type="line"/>
			<point x="396" y="370"/>
			<point x="336" y="450"/>
			<point x="231" y="450" type="curve" smooth="yes"/>
			<point x="115" y="450"/>
			<point x="30" y="357"/>
			<point x="30" y="224" type="curve" smooth="yes"/>
			<point x="30" y="92"/>
			<point x="107" y="-10"/>
		</contour>
		<contour>
			<point x="119" y="291" type="line"/>
			<point x="130" y="364"/>
			<point x="168" y="423"/>
			<point x="231" y="423" type="curve" smooth="yes"/>
			<point x="306" y="423"/>
			<point x="326" y="348"/>
			<point x="325" y="291" type="curve"/>
		</contour>
		<contour>
			<point x="231" y="-10" type="curve" smooth="yes"/>
			<point x="312" y="-10"/>
			<point x="386" y="62"/>
			<point x="397" y="143" type="curve"/>
			<point x="374" y="151" type="line"/>
			<point x="345" y="77"/>
			<point x="276" y="29"/>
			<point x="231" y="29" type="curve" smooth="yes"/>
			<point x="161" y="29"/>
			<point x="109" y="110"/>
			<point x="119" y="260" type="curve"/>
			<point x="543" y="260" type="line"/>
			<point x="543" y="290" type="line"/>
			<point x="409" y="290" type="line"/>
			<point x="396" y="370"/>
			<point x="336" y="450"/>
			<point x="231" y="450" type="curve" smooth="yes"/>
			<point x="115" y="450"/>
			<point x="30" y="357"/>
			<point x="30" y="224" type="curve" smooth="yes"/>
			<point x="30" y="92"/>
			<point x="107" y="-10"/>
		</contour>
		<contour>
			<point x="119" y="291" type="line"/>
			<point x="130" y="364"/>
			<point x="168" y="423"/>
			<point x="231" y="423" type="curve" smooth="yes"/>
			<point x="306" y="423"/>
			<point x="326" y="348"/>
			<point x="325" y="291" type="curve"/>
		</contour>
		<component base="uni0302" xOffset="109"/>
		<component base="uF4910" xOffset="443"/>
		<component base="uni0302" xOffset="109"/>
	</outline>
</glyph>
<glyph name="empattement_haut_gauche" format="2">
	<advance width="514"/>
	<outline>
		<contour>
			<point x="101" y="481" type="line"/>
			<point x="174" y="481" type="line"/>
			<point x="174" y="600" type="line"/>
			<point x="20" y="544" type="line"/>
			<point x="20" y="521" type="line"/>
			<point x="79" y="521" type="line"/>
			<point x="101" y="502" type="line"/>
		</contour>
	</outline>
</glyph>
<glyph name="f_i" format="2">
	<advance width="471"/>
	<outline>
		<contour>
			<point x="252" y="0" type="line"/>
			<point x="461" y="0" type="line"/>
			<point x="461" y="28" type="line"/>
			<point x="413" y="28" type="line"/>
			<point x="394" y="50" type="line"/>
			<point x="394" y="440" type="line"/>
			<point x="240" y="440" type="line"/>
			<point x="240" y="417" type="line"/>
			<point x="299" y="396" type="line"/>
			<point x="321" y="377" type="line"/>
			<point x="321" y="50" type="line"/>
			<point x="302" y="28" type="line"/>
			<point x="252" y="28" type="line"/>
		</contour>
		<component base="f"/>
	</outline>
</glyph>
<glyph name="seven.osf" format="2">
	<advance width="411"/>
	<outline>
		<contour>
			<point x="142" y="1" type="line"/>
			<point x="391" y="542" type="line"/>
			<point x="391" y="599" type="line"/>
			<point x="20" y="600" type="line"/>
			<point x="20" y="496" type="line"/>
			<point x="58" y="496" type="line"/>
			<point x="58" y="543" type="line"/>
			<point x="80" y="563" type="line"/>
			<point x="316" y="563" type="line"/>
			<point x="316" y="534" type="line"/>
			<point x="67" y="1" type="line"/>
		</contour>
	</outline>
</glyph>
<glyph name="u_r_i_c_e_s" format="2">
	<advance width="1598"/>
	<outline>
		<contour>
			<point x="219" y="-9" type="curve" smooth="yes"/>
			<point x="234" y="-9"/>
			<point x="249" y="-7"/>
			<point x="263" y="-3" type="curve" smooth="yes"/>
			<point x="299" y="8"/>
			<point x="331" y="34"/>
			<point x="352" y="82" type="curve"/>
			<point x="374" y="82" type="line"/>
			<point x="374" y="0" type="line"/>
			<point x="425" y="0" type="line"/>
			<point x="425" y="309" type="line"/>
			<point x="478" y="309" type="line"/>
			<point x="489" y="333"/>
			<point x="498" y="376"/>
			<point x="522" y="376" type="curve" smooth="yes"/>
			<point x="547" y="376"/>
			<point x="560" y="345"/>
			<point x="592" y="345" type="curve" smooth="yes"/>
			<point x="615" y="345"/>
			<point x="634" y="364"/>
			<point x="634" y="387" type="curve" smooth="yes"/>
			<point x="634" y="415"/>
			<point x="608" y="440"/>
			<point x="573" y="440" type="curve" smooth="yes"/>
			<point x="524" y="440"/>
			<point x="488" y="400"/>
			<point x="463" y="350" type="curve"/>
			<point x="403" y="350" type="line"/>
			<point x="403" y="440" type="line"/>
			<point x="352" y="440" type="line"/>
			<point x="352" y="132" type="line"/>
			<point x="328" y="69"/>
			<point x="296" y="39"/>
			<point x="263" y="32" type="curve" smooth="yes"/>
			<point x="257" y="31"/>
			<point x="251" y="30"/>
			<point x="245" y="30" type="curve" smooth="yes"/>
			<point x="190" y="30"/>
			<point x="154" y="65"/>
			<point x="154" y="158" type="curve" smooth="yes"/>
			<point x="154" y="440" type="line"/>
			<point x="0" y="379" type="line"/>
			<point x="0" y="361" type="line"/>
			<point x="59" y="361" type="line"/>
			<point x="81" y="342" type="line"/>
			<point x="81" y="107" type="line" smooth="yes"/>
			<point x="81" y="38"/>
			<point x="139" y="-9"/>
		</contour>
		<contour>
			<point x="546" y="55" type="line" smooth="yes"/>
			<point x="546" y="-77"/>
			<point x="623" y="-179"/>
			<point x="747" y="-179" type="curve" smooth="yes"/>
			<point x="762" y="-179"/>
			<point x="776" y="-177"/>
			<point x="790" y="-172" type="curve" smooth="yes"/>
			<point x="842" y="-156"/>
			<point x="886" y="-112"/>
			<point x="905" y="-60" type="curve"/>
			<point x="936" y="-132"/>
			<point x="999" y="-179"/>
			<point x="1083" y="-179" type="curve" smooth="yes"/>
			<point x="1164" y="-179"/>
			<point x="1238" y="-107"/>
			<point x="1249" y="-26" type="curve"/>
			<point x="1226" y="-18" type="line"/>
			<point x="1197" y="-92"/>
			<point x="1128" y="-140"/>
			<point x="1083" y="-140" type="curve" smooth="yes"/>
			<point x="1000" y="-140"/>
			<point x="959" y="-37"/>
			<point x="974" y="45" type="curve"/>
			<point x="1297" y="45" type="line"/>
			<point x="1342" y="-28"/>
			<point x="1471" y="-18"/>
			<point x="1493" y="-66" type="curve" smooth="yes"/>
			<point x="1518" y="-121"/>
			<point x="1474" y="-148"/>
			<point x="1430" y="-148" type="curve" smooth="yes"/>
			<point x="1377" y="-148"/>
			<point x="1321" y="-91"/>
			<point x="1313" y="-1" type="curve"/>
			<point x="1287" y="-1" type="line"/>
			<point x="1287" y="-146" type="line"/>
			<point x="1311" y="-146" type="line"/>
			<point x="1311" y="-132" type="line"/>
			<point x="1328" y="-132" type="line"/>
			<point x="1369" y="-166"/>
			<point x="1383" y="-180"/>
			<point x="1435" y="-180" type="curve" smooth="yes"/>
			<point x="1503" y="-180"/>
			<point x="1568" y="-148"/>
			<point x="1568" y="-79" type="curve" smooth="yes"/>
			<point x="1568" y="7"/>
			<point x="1496" y="17"/>
			<point x="1413" y="47" type="curve" smooth="yes"/>
			<point x="1406" y="49"/>
			<point x="1400" y="52"/>
			<point x="1393" y="55" type="curve"/>
			<point x="1504" y="60"/>
			<point x="1570" y="87"/>
			<point x="1545" y="170" type="curve" smooth="yes"/>
			<point x="1531" y="216"/>
			<point x="1475" y="234"/>
			<point x="1416" y="234" type="curve" smooth="yes"/>
			<point x="1342" y="234"/>
			<point x="1280" y="186"/>
			<point x="1280" y="111" type="curve" smooth="yes"/>
			<point x="1280" y="97"/>
			<point x="1282" y="85"/>
			<point x="1285" y="74" type="curve"/>
			<point x="893" y="75" type="line"/>
			<point x="894" y="43"/>
			<point x="900" y="-130"/>
			<point x="747" y="-140" type="curve" smooth="yes"/>
			<point x="682" y="-144"/>
			<point x="631" y="-68"/>
			<point x="634" y="66" type="curve" smooth="yes"/>
			<point x="634" y="74"/>
			<point x="634" y="82"/>
			<point x="635" y="91" type="curve" smooth="yes"/>
			<point x="643" y="180"/>
			<point x="671" y="256"/>
			<point x="739" y="256" type="curve" smooth="yes"/>
			<point x="747" y="256" type="line" smooth="yes"/>
			<point x="785" y="256"/>
			<point x="807" y="237"/>
			<point x="803" y="201" type="curve"/>
			<point x="797" y="182"/>
			<point x="800" y="170"/>
			<point x="805" y="161" type="curve" smooth="yes"/>
			<point x="816" y="141"/>
			<point x="839" y="130"/>
			<point x="860" y="139" type="curve" smooth="yes"/>
			<point x="886" y="150"/>
			<point x="898" y="184"/>
			<point x="884" y="217" type="curve" smooth="yes"/>
			<point x="867" y="257"/>
			<point x="797" y="281"/>
			<point x="747" y="281" type="curve" smooth="yes"/>
			<point x="740" y="281" type="line" smooth="yes"/>
			<point x="628" y="281"/>
			<point x="546" y="186"/>
			<point x="546" y="66" type="curve" smooth="yes"/>
		</contour>
		<contour>
			<point x="1338" y="119" type="curve" smooth="yes"/>
			<point x="1327" y="167"/>
			<point x="1371" y="210"/>
			<point x="1419" y="210" type="curve" smooth="yes"/>
			<point x="1459" y="208"/>
			<point x="1481" y="187"/>
			<point x="1484" y="154" type="curve" smooth="yes"/>
			<point x="1488" y="115"/>
			<point x="1469" y="82"/>
			<point x="1362" y="76" type="curve"/>
			<point x="1351" y="86"/>
			<point x="1342" y="100"/>
		</contour>
		<component base="uni0307" xOffset="521"/>
	</outline>
</glyph>
<glyph name="x_l_l_e" format="2">
	<advance width="949"/>
	<outline>
		<contour>
			<point x="334" y="432" type="line"/>
			<point x="406" y="432" type="line"/>
			<point x="406" y="602" type="line"/>
			<point x="253" y="546" type="line"/>
			<point x="253" y="523" type="line"/>
			<point x="312" y="523" type="line"/>
			<point x="334" y="504" type="line"/>
		</contour>
		<contour>
			<point x="492" y="521" type="line"/>
			<point x="551" y="521" type="line"/>
			<point x="573" y="502" type="line"/>
			<point x="573" y="79" type="line"/>
			<point x="574" y="-46"/>
			<point x="630" y="-179"/>
			<point x="773" y="-179" type="curve" smooth="yes"/>
			<point x="854" y="-179"/>
			<point x="928" y="-107"/>
			<point x="939" y="-26" type="curve"/>
			<point x="916" y="-18" type="line"/>
			<point x="887" y="-92"/>
			<point x="818" y="-140"/>
			<point x="773" y="-140" type="curve" smooth="yes"/>
			<point x="703" y="-140"/>
			<point x="651" y="-59"/>
			<point x="661" y="91" type="curve"/>
			<point x="895" y="91" type="line"/>
			<point x="895" y="121" type="line"/>
			<point x="655" y="121" type="line"/>
			<point x="655" y="600" type="line"/>
			<point x="492" y="544" type="line"/>
		</contour>
		<component base="x"/>
	</outline>
</glyph>
<glyph name="x_l_l_e_s" format="2">
	<advance width="1214"/>
	<outline>
		<contour>
			<point x="1041" y="-181" type="curve" smooth="yes"/>
			<point x="1109" y="-181"/>
			<point x="1184" y="-146"/>
			<point x="1184" y="-47" type="curve" smooth="yes"/>
			<point x="1184" y="25"/>
			<point x="1102" y="70"/>
			<point x="1019" y="100" type="curve" smooth="yes"/>
			<point x="991" y="110"/>
			<point x="955" y="117"/>
			<point x="944" y="164" type="curve" smooth="yes"/>
			<point x="933" y="212"/>
			<point x="977" y="255"/>
			<point x="1025" y="255" type="curve" smooth="yes"/>
			<point x="1065" y="253"/>
			<point x="1084" y="232"/>
			<point x="1080" y="199" type="curve"/>
			<point x="1074" y="180"/>
			<point x="1077" y="168"/>
			<point x="1082" y="159" type="curve" smooth="yes"/>
			<point x="1093" y="139"/>
			<point x="1116" y="128"/>
			<point x="1137" y="137" type="curve" smooth="yes"/>
			<point x="1163" y="148"/>
			<point x="1165" y="182"/>
			<point x="1151" y="215" type="curve" smooth="yes"/>
			<point x="1132" y="259"/>
			<point x="1081" y="279"/>
			<point x="1022" y="279" type="curve" smooth="yes"/>
			<point x="948" y="279"/>
			<point x="886" y="231"/>
			<point x="886" y="156" type="curve" smooth="yes"/>
			<point x="886" y="83"/>
			<point x="935" y="53"/>
			<point x="1012" y="21" type="curve" smooth="yes"/>
			<point x="1070" y="-3"/>
			<point x="1112" y="-21"/>
			<point x="1119" y="-61" type="curve" smooth="yes"/>
			<point x="1127" y="-108"/>
			<point x="1090" y="-141"/>
			<point x="1046" y="-141" type="curve" smooth="yes"/>
			<point x="980" y="-141"/>
			<point x="939" y="-68"/>
			<point x="933" y="-2" type="curve"/>
			<point x="909" y="-2" type="line"/>
			<point x="907" y="-68"/>
			<point x="852" y="-141"/>
			<point x="768" y="-141" type="curve" smooth="yes"/>
			<point x="698" y="-141"/>
			<point x="646" y="-60"/>
			<point x="656" y="90" type="curve"/>
			<point x="810" y="90" type="line"/>
			<point x="810" y="120" type="line"/>
			<point x="649" y="120" type="line"/>
			<point x="649" y="600" type="line"/>
			<point x="486" y="544" type="line"/>
			<point x="486" y="521" type="line"/>
			<point x="545" y="521" type="line"/>
			<point x="567" y="502" type="line"/>
			<point x="567" y="53" type="line" smooth="yes"/>
			<point x="567" y="-79"/>
			<point x="644" y="-180"/>
			<point x="768" y="-180" type="curve" smooth="yes"/>
			<point x="825" y="-180"/>
			<point x="878" y="-144"/>
			<point x="909" y="-95" type="curve"/>
			<point x="909" y="-147" type="line"/>
			<point x="933" y="-147" type="line"/>
			<point x="933" y="-95" type="line"/>
			<point x="958" y="-145"/>
			<point x="999" y="-181"/>
		</contour>
		<contour>
			<point x="328" y="432" type="line"/>
			<point x="400" y="432" type="line"/>
			<point x="400" y="602" type="line"/>
			<point x="247" y="546" type="line"/>
			<point x="247" y="523" type="line"/>
			<point x="306" y="523" type="line"/>
			<point x="328" y="504" type="line"/>
		</contour>
		<component base="x"/>
	</outline>
</glyph>
